# xmcd CD database file
#
# Track frame offsets:
#	150
#	14725
#	32915
#	49020
#	68310
#	91062
#	107715
#	126977
#	145912
#	167072
#	186180
#	213892
#	229505
#
# Disc length: 3336 seconds
#
# Revision: 10
# Processed by: cddbd v1.5.2PL0 Copyright (c) Steve Scherf et al.
# Submitted via: CDex 1.70beta2
#
DISCID=ab0d060d
DTITLE=MEGADETH - COUNTDOWN TO EXTINCTION
DYEAR=1992
DGENRE=Metal
TTITLE0=SKIN O' MY TEETH
TTITLE1=SYMPHONY OF DESTRUCTION
TTITLE2=ARCHITECTURE OF AGGRESSION
TTITLE3=FORECLOSURE OF A DREAM
TTITLE4=SWEATING BULLETS
TTITLE5=THIS WAS MY LIFE
TTITLE6=COUNTDOWN TO EXTINCTION
TTITLE7=HIGH SPEED DIRT
TTITLE8=PSYCHOTRON
TTITLE9=CAPTIVE HONOUR
TTITLE10=ASHES IN YOUR MOUTH
TTITLE11=BREAKPOINT
TTITLE12=GO TO HELL
EXTD=YEAR: 1992
EXTT0=
EXTT1=
EXTT2=
EXTT3=
EXTT4=
EXTT5=
EXTT6=
EXTT7=
EXTT8=
EXTT9=
EXTT10=
EXTT11=
EXTT12=
PLAYORDER=
